<svg xmlns="http://www.w3.org/2000/svg" xmlns:xlink="http://www.w3.org/1999/xlink" viewBox="0 0 615.65 315.85"><defs><style>.cls-1{fill:url(#linear-gradient);}.cls-2{fill:url(#linear-gradient-2);}.cls-3{fill:url(#linear-gradient-3);}.cls-4{fill:url(#linear-gradient-4);}.cls-5{fill:url(#linear-gradient-5);}.cls-6{fill:url(#linear-gradient-6);}.cls-7{fill:url(#linear-gradient-7);}.cls-8{fill:url(#Gradiente_sem_nome_17);}.cls-9{font-size:89.89px;font-family:Inversionz;}.cls-10,.cls-9{fill:#091256;}.cls-10{font-size:55.72px;font-family:Inversionz-Italic, Inversionz;font-style:italic;}</style><linearGradient id="linear-gradient" x1="140.45" y1="176.52" x2="147.55" y2="145.43" gradientTransform="matrix(1, 0, -0.17, 1, 18.27, 0)" gradientUnits="userSpaceOnUse"><stop offset="0.26" stop-color="#020289"/><stop offset="0.66" stop-color="#3b968d"/><stop offset="1" stop-color="#0feaea"/></linearGradient><linearGradient id="linear-gradient-2" x1="124.22" y1="224.99" x2="217.5" y2="181.38" gradientTransform="matrix(1, 0, -0.17, 1, 18.27, 0)" gradientUnits="userSpaceOnUse"><stop offset="0" stop-color="#0feaea"/><stop offset="0.74" stop-color="#020289"/></linearGradient><linearGradient id="linear-gradient-3" x1="91.27" y1="234.35" x2="121.43" y2="102.43" xlink:href="#linear-gradient-2"/><linearGradient id="linear-gradient-4" x1="104.49" y1="219.39" x2="134.65" y2="87.47" xlink:href="#linear-gradient"/><linearGradient id="linear-gradient-5" x1="186.53" y1="88.16" x2="147.05" y2="144.5" gradientTransform="matrix(1, 0, -0.17, 1, 18.27, 0)" gradientUnits="userSpaceOnUse"><stop offset="0" stop-color="#1134a3"/><stop offset="0.49" stop-color="#3461c6"/></linearGradient><linearGradient id="linear-gradient-6" x1="94.51" y1="178.06" x2="173.7" y2="231.7" xlink:href="#linear-gradient-2"/><linearGradient id="linear-gradient-7" x1="156.47" y1="185.98" x2="128.51" y2="208.84" xlink:href="#linear-gradient-2"/><linearGradient id="Gradiente_sem_nome_17" x1="106.66" y1="308.76" x2="175.63" y2="7.08" gradientUnits="userSpaceOnUse"><stop offset="0" stop-color="#020289"/><stop offset="0.49" stop-color="#34a49d"/><stop offset="0.96" stop-color="#1fcbc8"/><stop offset="1" stop-color="#fff"/></linearGradient></defs><title>Ativo 5</title><g id="Camada_2" data-name="Camada 2"><g id="Text"><polygon class="cls-1" points="123.26 175.42 117.44 160.97 128.31 146.53 144.99 146.53 150.81 160.97 139.94 175.42 123.26 175.42"/><path class="cls-2" d="M158.58,181.38c-.38.35-.76.7-1.15,1-.09.08-.18.15-.27.94l-8.31,11.05s-16,20.1-47.72,27.72a60.62,60.62,0,0,0,26.06,5.61c18.07,0,36.28-7,51.29-19.81a87.7,87.7,0,0,0,11.38-11.67,19.89,19.89,0,0,0,4.62-14.87Z"/><path class="cls-3" d="M70.84,163.73c-2,16.7,2.15,32.27,12,44.19A52.76,52.76,0,0,0,100,221.55c-15.93-25.44-3.4-61.46-3.4-61.46l25.26-33.58S92.12,132.17,70.84,163.73Z"/><path class="cls-4" d="M123.55,97.77a85.47,85.47,0,0,0-24,14.49c-15,12.78-25,29.77-28.17,47.83-.22,1.22-.39,2.43-.54,3.64,21.28-31.56,51-37.22,51-37.22H160.6S152.5,103.41,123.55,97.77Z"/><path class="cls-5" d="M202.81,124.6a53.22,53.22,0,0,0-7.61-12.34c-10.54-12.77-26.3-19.81-44.36-19.81a74.56,74.56,0,0,0-27.29,5.32c29,5.64,37.05,28.74,37.05,28.74l4.44,11c.06.08.13.15.19.22.33.4.64.81.94,1.23h36.12A17.53,17.53,0,0,0,202.81,124.6Z"/><path class="cls-6" d="M110.08,193.67,96.56,160.09s-12.53,36,3.4,61.46l1.17.57a94.75,94.75,0,0,0,29.55-12.69C119.05,210.32,110.08,193.67,110.08,193.67Z"/><path class="cls-7" d="M148.85,193.67H110.08s9,16.65,20.6,15.76C142.77,201.58,148.85,193.67,148.85,193.67Z"/><path class="cls-8" d="M282.07,224.07c-1.12-8.1-5.78-13.39-13.19-16.41-1.24-.5-1.73-1-1.73-2.4q.08-47.16,0-94.31a2.34,2.34,0,0,1,1.88-2.64c8.24-3,13.88-11.4,13.34-19.77s-4.57-14.68-12.3-18.11-15.17-2.35-21.86,2.92a1.91,1.91,0,0,1-2.61.23Q205,50.3,164.25,27.13c-1.82-1-3.37-1.94-2.5-4.38,0-1.68-.09-3.37,0-5.05C161.23,8.88,152.2.21,143.32,0A11.21,11.21,0,0,1,139,0c-8.88.21-17.9,8.87-18.42,17.7.08,1.68,0,3.36,0,5.05.83,2.41-.67,3.33-2.5,4.37q-40.39,23-80.7,46.13c-1.58.9-2.42.72-3.84-.32C26.44,67.69,18.75,67,11,71.06,3.48,75-.34,81.55,0,90c.39,9,5.24,15.16,13.6,18.43a2.06,2.06,0,0,1,1.53,2.35q0,47,0,94a2.77,2.77,0,0,1-2.05,3.11c-7.27,3-11.79,8.3-12.88,16.25,0,1.8,0,3.61,0,5.41a11.19,11.19,0,0,0,.14,1.42,20.88,20.88,0,0,0,33.75,11.78,2.14,2.14,0,0,1,2.93-.24q40.49,23.21,81,46.28c1.83,1,3.33,2,2.5,4.38,0,1.68.09,3.36,0,5,.53,8.83,9.54,17.49,18.41,17.7a11.27,11.27,0,0,1,4.33,0c8.87-.21,17.9-8.89,18.42-17.7-.08-1.69,0-3.37,0-5-.87-2.44.68-3.34,2.5-4.38q40.63-23.12,81.18-46.36a1.9,1.9,0,0,1,2.63.21,18.37,18.37,0,0,0,10.56,4.61c1.93,0,3.85-.1,5.78,0,8.59-.49,17.19-9.09,17.69-17.69C282,227.68,282.06,225.88,282.07,224.07Zm-28-16.38a17.34,17.34,0,0,0-7.48,4.89c-.84.91-1.4.85-2.39.28-11.31-6.52-22.67-13-34-19.48-1.2-.7-1.67-.65-2.31.68a68.18,68.18,0,0,1-4,7.07c-.72,1.12-.51,1.52.57,2.13,11.57,6.55,23.1,13.17,34.67,19.73,1.2.69,2,1.28,1.54,2.9a8.37,8.37,0,0,0,.29,4.29c.34,1.26-.11,1.77-1.15,2.36q-20.47,11.63-40.92,23.34-20.92,12-41.83,23.94a1.87,1.87,0,0,1-2.63-.24,16.1,16.1,0,0,0-6.1-3.42c-1.22-.36-1.52-.94-1.51-2.15,0-12.29,0-21,0-33.25,0-2.42,0-2.42-2.54-1.92-.68.37-1.38-.1-2.08-.29h-2.18c-.7.19-1.4.66-2.08.29-2.54-.5-2.54-.5-2.54,1.92,0,12.28,0,21,0,33.24,0,1.22-.29,1.8-1.51,2.16a16.6,16.6,0,0,0-6.24,3.52,1.66,1.66,0,0,1-2.33.23q-37.91-21.71-75.85-43.36c-2.4-1.37-4.79-2.78-7.22-4.11-.89-.49-1.32-.92-1-2.08a10,10,0,0,0,.28-4.83c-.28-1.19.18-1.7,1.14-2.25,8.85-5,12.25-7.53,21.08-12.58,2.93-1.67,5.83-3.38,8.79-5,1-.53,1.14-.92.48-1.88a48.15,48.15,0,0,1-4.17-7.37c-.56-1.23-1-1.19-2.09-.58-11.37,6.54-17.36,10.48-28.72,17a1.57,1.57,0,0,1-2.37-.35,18.17,18.17,0,0,0-7.82-5,1.77,1.77,0,0,1-1.42-2.06q0-47.43,0-94.87c0-1.2.26-1.83,1.48-2.18a8.82,8.82,0,0,0,3.25-1.51c1.7-1.4,3-1,4.75,0,12.08,7,18.45,11,30.55,18,1.14.65,2.93,2.14,4.38,2.14,1.81,0,4.89-5.7,6.5-8,.72-1-4-3.41-5-4C60.27,108.25,54,104.21,41.9,97.36c-1.2-.68-1.68-1.24-1.08-2.59a6,6,0,0,0,.57-3c0-1.68,0-3.37,0-5-.84-2.29.56-3.14,2.32-4.14q40.8-23.2,81.5-46.56a1.88,1.88,0,0,1,2.64.23,15.58,15.58,0,0,0,5.92,3.36,2,2,0,0,1,1.7,2.38c0,14.16,0,23.61,0,37.77,0,.61-.32,2.4.28,2.94a1,1,0,0,1,1.07,0c2.9,0,5.8-1.09,8.69-1.09a1,1,0,0,1,1.08,0c.59-.55.27-1.25.27-1.86,0-14.16,0-23.62,0-37.77a2,2,0,0,1,1.7-2.38A16.79,16.79,0,0,0,154.75,36a1.45,1.45,0,0,1,2-.18q41.67,23.85,83.4,47.61c1.75,1,.41,2.2.74,3.26v5a4.7,4.7,0,0,0,.46,2.64c.86,1.75.07,2.42-1.4,3.24-11.9,6.71-17.23,10.63-29.11,17.36-1.1.63-.77,1,.11,2.23,1.61,2.18,2,5.1,2.22,7.4.17,1.41,1.45,1.32,2.6.66,12.42-7.14,19.09-11.68,31.5-18.83,1.11-.64,1.91-.85,3,0a13,13,0,0,0,4.38,2.1c.84.25,1.22.63,1.12,1.5a6.76,6.76,0,0,0,0,.9q0,47.07,0,94.14C255.84,206.59,255.46,207.25,254.06,207.69Z"/><text class="cls-9" transform="translate(278.57 178.11)">CRYPTO</text><text class="cls-10" transform="translate(330 204.07)">VORTEX</text></g></g></svg>