<svg xmlns="http://www.w3.org/2000/svg" xmlns:xlink="http://www.w3.org/1999/xlink" viewBox="0 0 1254.65 580.39"><defs><style>.cls-1{fill:url(#linear-gradient);}.cls-2{fill:url(#linear-gradient-2);}.cls-3{fill:url(#linear-gradient-3);}.cls-4{fill:url(#linear-gradient-4);}.cls-5{fill:url(#linear-gradient-5);}.cls-6{fill:url(#linear-gradient-6);}.cls-7{fill:url(#linear-gradient-7);}.cls-8{fill:url(#Gradiente_sem_nome_17);}.cls-9{font-size:201.51px;font-family:Inversionz;}.cls-10,.cls-9{fill:#091256;}.cls-10{font-size:124.9px;font-family:Inversionz-Italic, Inversionz;font-style:italic;}</style><linearGradient id="linear-gradient" x1="247.06" y1="324.36" x2="260.12" y2="267.24" gradientTransform="matrix(1, 0, -0.17, 1, 44.58, 0)" gradientUnits="userSpaceOnUse"><stop offset="0.26" stop-color="#020289"/><stop offset="0.66" stop-color="#3b968d"/><stop offset="1" stop-color="#0feaea"/></linearGradient><linearGradient id="linear-gradient-2" x1="217.25" y1="413.44" x2="388.65" y2="333.3" gradientTransform="matrix(1, 0, -0.17, 1, 44.58, 0)" gradientUnits="userSpaceOnUse"><stop offset="0" stop-color="#0feaea"/><stop offset="0.74" stop-color="#020289"/></linearGradient><linearGradient id="linear-gradient-3" x1="156.7" y1="430.64" x2="212.12" y2="188.23" xlink:href="#linear-gradient-2"/><linearGradient id="linear-gradient-4" x1="180.99" y1="403.14" x2="236.41" y2="160.72" xlink:href="#linear-gradient"/><linearGradient id="linear-gradient-5" x1="331.75" y1="162" x2="259.19" y2="265.52" gradientTransform="matrix(1, 0, -0.17, 1, 44.58, 0)" gradientUnits="userSpaceOnUse"><stop offset="0" stop-color="#1134a3"/><stop offset="0.49" stop-color="#3461c6"/></linearGradient><linearGradient id="linear-gradient-6" x1="162.65" y1="327.2" x2="308.16" y2="425.77" xlink:href="#linear-gradient-2"/><linearGradient id="linear-gradient-7" x1="276.52" y1="341.76" x2="225.13" y2="383.76" xlink:href="#linear-gradient-2"/><linearGradient id="Gradiente_sem_nome_17" x1="195.99" y1="567.36" x2="322.73" y2="13.02" gradientUnits="userSpaceOnUse"><stop offset="0" stop-color="#020289"/><stop offset="0.49" stop-color="#34a49d"/><stop offset="0.96" stop-color="#1fcbc8"/><stop offset="1" stop-color="#fff"/></linearGradient></defs><title>Ativo 4</title><g id="Camada_2" data-name="Camada 2"><g id="Text"><polygon class="cls-1" points="226.5 322.35 215.81 295.8 235.78 269.25 266.44 269.25 277.12 295.8 257.15 322.35 226.5 322.35"/><path class="cls-2" d="M291.41,333.3c-.7.64-1.4,1.28-2.12,1.89-.16.14-.33.27-.5,1.73l-15.26,20.3s-29.46,36.94-87.7,50.95a111.6,111.6,0,0,0,47.89,10.3c33.2,0,66.67-12.93,94.25-36.41a161.67,161.67,0,0,0,20.92-21.44c6.84-8.46,9.62-18.42,8.49-27.32Z"/><path class="cls-3" d="M130.17,300.86c-3.75,30.68,4,59.31,22,81.2a97,97,0,0,0,31.48,25.06c-29.28-46.75-6.25-112.94-6.25-112.94l46.42-61.71S169.27,242.87,130.17,300.86Z"/><path class="cls-4" d="M227,179.65a157.08,157.08,0,0,0-44.1,26.64c-27.58,23.48-46,54.69-51.77,87.89q-.58,3.35-1,6.68c39.1-58,93.68-68.39,93.68-68.39h71.26S280.24,190,227,179.65Z"/><path class="cls-5" d="M372.67,229a97.65,97.65,0,0,0-14-22.68c-19.37-23.47-48.32-36.4-81.52-36.4A137.08,137.08,0,0,0,227,179.65c53.21,10.38,68.08,52.82,68.08,52.82l8.17,20.29c.11.14.23.27.35.41.6.73,1.17,1.48,1.73,2.24h66.37C375.68,246.79,376.32,237.2,372.67,229Z"/><path class="cls-6" d="M202.27,355.89l-24.84-61.71s-23,66.19,6.25,112.94c.71.35,1.43.71,2.15,1.05a174.24,174.24,0,0,0,54.31-23.33C218.77,386.48,202.27,355.89,202.27,355.89Z"/><path class="cls-7" d="M273.53,355.89H202.27s16.5,30.59,37.87,28.95C262.34,370.42,273.53,355.89,273.53,355.89Z"/><path class="cls-8" d="M518.33,411.75c-2.07-14.89-10.63-24.62-24.25-30.15-2.28-.92-3.18-1.84-3.18-4.42q.14-86.65,0-173.31c0-2.8.89-3.9,3.47-4.85,15.13-5.58,25.49-20.94,24.5-36.31s-8.39-27-22.6-33.28-27.88-4.33-40.16,5.36c-1.76,1.39-2.85,1.55-4.81.43Q376.63,92.43,301.83,49.84c-3.35-1.9-6.2-3.56-4.61-8,0-3.09-.16-6.18,0-9.28C296.26,16.33,279.67.38,263.36,0a20.85,20.85,0,0,1-8,0c-16.31.38-32.87,16.3-33.84,32.52.15,3.09-.06,6.19,0,9.28,1.53,4.44-1.22,6.13-4.58,8Q142.73,92.08,68.66,134.6c-2.89,1.66-4.45,1.33-7-.59-13-9.62-27.17-11-41.48-3.43C6.4,137.82-.62,149.85,0,165.34c.72,16.53,9.62,27.86,25,33.87,2.38.93,2.8,2.11,2.8,4.32q-.06,86.32,0,172.64c0,3.05-.73,4.47-3.76,5.72C10.75,387.38,2.45,397.14.45,411.75c0,3.31.06,6.62,0,9.93a25.25,25.25,0,0,0,.25,2.62c5.83,28.19,39.75,40.07,62,21.65,2-1.63,3.22-1.7,5.39-.45q74.39,42.63,148.89,85c3.36,1.91,6.11,3.6,4.58,8,0,3.09.17,6.18,0,9.28,1,16.22,17.53,32.14,33.84,32.52a20.85,20.85,0,0,1,8,0c16.3-.38,32.9-16.34,33.84-32.52-.14-3.1.07-6.19,0-9.28-1.58-4.48,1.26-6.14,4.6-8.05Q376.48,488.08,451,445.36c1.93-1.11,3.07-1.13,4.84.38a33.83,33.83,0,0,0,19.4,8.47c3.53.06,7.07-.18,10.6,0,15.8-.91,31.6-16.71,32.51-32.52C518.26,418.37,518.31,415.06,518.33,411.75Zm-51.47-30.1a31.65,31.65,0,0,0-13.75,9c-1.54,1.68-2.58,1.56-4.39.51-20.79-12-41.66-23.81-62.44-35.79-2.21-1.28-3.08-1.2-4.25,1.26a122.81,122.81,0,0,1-7.34,13c-1.31,2.06-.93,2.79,1.05,3.91,21.26,12,42.45,24.21,63.71,36.26,2.22,1.26,3.67,2.36,2.84,5.33-.71,2.56-.16,5.34.52,7.88.63,2.32-.19,3.25-2.1,4.33q-37.65,21.38-75.2,42.9-38.44,22-76.87,44c-2,1.15-3.15,1-4.83-.46a29.5,29.5,0,0,0-11.22-6.27c-2.23-.67-2.77-1.74-2.76-4,.08-22.58.05-38.52.05-61.1,0-4.45,0-4.45-4.67-3.53-1.25.69-2.53-.17-3.81-.52h-4c-1.29.35-2.56,1.21-3.81.52-4.67-.92-4.67-.92-4.67,3.53,0,22.58,0,38.51,0,61.09,0,2.23-.53,3.3-2.77,4a30.47,30.47,0,0,0-11.47,6.47c-1.49,1.32-2.53,1.42-4.28.42q-69.66-39.9-139.38-79.68c-4.42-2.53-8.8-5.11-13.26-7.55-1.64-.9-2.44-1.69-1.89-3.83a18.55,18.55,0,0,0,.53-8.88c-.53-2.18.32-3.12,2.09-4.12,16.26-9.21,22.51-13.85,38.74-23.12,5.38-3.07,10.71-6.22,16.15-9.17,1.82-1,2.1-1.7.89-3.45A87,87,0,0,1,126.63,361c-1-2.25-1.88-2.18-3.84-1.06C101.9,372,90.89,379.19,70,391.23c-1.93,1.11-2.89.94-4.35-.64a33.57,33.57,0,0,0-14.38-9.21c-2.15-.69-2.6-1.75-2.6-3.78q.07-87.17,0-174.32c0-2.21.48-3.37,2.74-4a16.69,16.69,0,0,0,6-2.78c3.11-2.57,5.54-1.79,8.73.06,22.18,12.87,33.89,20.18,56.12,33,2.09,1.2,5.4,3.93,8,3.93,3.32,0,9-10.47,11.95-14.61,1.33-1.86-7.41-6.27-9.27-7.33-22.22-12.61-33.73-20-56-32.61-2.22-1.25-3.09-2.27-2-4.77a11,11,0,0,0,1-5.49c0-3.09,0-6.19,0-9.28-1.53-4.21,1-5.76,4.27-7.6q75-42.63,149.77-85.56c2-1.13,3.13-1.13,4.84.42a28.51,28.51,0,0,0,10.89,6.17c2.44.74,3.13,1.85,3.12,4.38-.11,26-.08,43.39,0,69.39,0,1.13-.59,4.42.51,5.41a1.87,1.87,0,0,1,2,0c5.33,0,10.65-2,16-2a1.84,1.84,0,0,1,2,0c1.1-1,.51-2.29.51-3.42,0-26,.07-43.38,0-69.39,0-2.53.69-3.63,3.13-4.38a30.65,30.65,0,0,0,11.42-6.58c1.31-1.19,2.27-1.17,3.73-.33q76.59,43.83,153.25,87.5c3.23,1.83.76,4,1.37,6v9.28a8.52,8.52,0,0,0,.84,4.85c1.58,3.22.12,4.44-2.57,6-21.86,12.32-31.66,19.53-53.49,31.9-2,1.15-1.42,1.91.2,4.1,3,4,3.6,9.36,4.09,13.6.3,2.59,2.65,2.43,4.77,1.21,22.81-13.13,35.07-21.47,57.88-34.6,2-1.17,3.51-1.57,5.54,0a24,24,0,0,0,8,3.86c1.56.46,2.25,1.16,2.07,2.76a13,13,0,0,0,0,1.65q0,86.5.07,173C470.12,379.62,469.42,380.83,466.86,381.65Z"/><text class="cls-9" transform="translate(499 335.41)">CRYPTO</text><text class="cls-10" transform="translate(614.29 393.61)">VORTEX</text></g></g></svg>